<svg id="Calque_1" data-name="Calque 1" xmlns="http://www.w3.org/2000/svg" viewBox="0 0 2407.25 858.13"><defs><style>.cls-1{fill:#111216;}.cls-2{fill:none;stroke:#fff;stroke-miterlimit:10;}</style></defs><path id="Tracé_18" data-name="Tracé 18" class="cls-1" d="M0-17H1949V841H0Z" transform="translate(182.17 17.13)"/><g id="Groupe_1" data-name="Groupe 1"><path id="Tracé_19" data-name="Tracé 19" class="cls-2" d="M-19.2-17C-39.89,59.88-57,182.14-7.47,330.39c35,104.55,71.61,214.24,169,236.09C312,600.26,391.8,376,681.81,348.14c342.79-32.89,616.39,243.53,809.38,183.08,123.43-38.65,128.88-188.48,65-293.09-78.26-128.06-282.22-223.84-515-238.62" transform="translate(182.17 17.13)"/><path id="Tracé_20" data-name="Tracé 20" class="cls-2" d="M-22.39-12.89C-33.72,65.66-47.89,188.26,1.12,335.69,35.87,440.55,70.34,550,166.66,571.71c149,33.66,230.82-192.39,524.21-222.46,345-35,625,237.26,814.68,179.15,121.31-37.19,122.85-182.74,56.36-285.39C1479.83,117.32,1274.37,20.46,1043,1.5" transform="translate(182.17 17.13)"/><path id="Tracé_21" data-name="Tracé 21" class="cls-2" d="M-25.58-8.78c-2,80.22-13.18,203.16,35.3,349.77C44.28,446.17,76.54,555.31,171.81,577c147.52,33.54,231.35-194.26,528.13-226.58,347.19-37.1,633.61,231,820,175.2,119.18-35.72,117.28-177.08,47.76-277.67C1482.35,124.45,1274.82,26.63,1044.87,3.5" transform="translate(182.17 17.13)"/><path id="Tracé_22" data-name="Tracé 22" class="cls-2" d="M-28.77-4.68c7.42,81.89-.86,205.18,47.08,351C52.68,451.78,82.75,560.65,177,582.18,323,615.6,408.63,385.64,709,351.49c349.18-39.7,642.24,224.72,825.29,171.26,117.06-34.25,111.47-171.39,39.15-270-88.87-121.14-298.17-220-526.72-247.29" transform="translate(182.17 17.13)"/><path id="Tracé_23" data-name="Tracé 23" class="cls-2" d="M-32-.57C-15.18,83-20.5,206.63,26.91,351.59,61.09,457.4,89,566,182.12,587.41c144.58,33.31,232.13-198.53,535.94-234.8,351.3-41.94,650.84,218.45,830.59,167.32,114.93-32.79,105.64-165.71,30.55-262.27C1486.77,138.81,1275.71,39,1048.56,7.48" transform="translate(182.17 17.13)"/><path id="Tracé_24" data-name="Tracé 24" class="cls-2" d="M-35.16,3.54C-9,88.77-11.36,212.75,35.5,356.89,69.49,463,95.16,571.34,187.27,592.64c143.11,33.19,232.59-200.51,539.85-238.91C1080.55,309.55,1386.58,565.91,1563,517.1c112.81-31.31,99.8-160,22-254.56C1489,146,1276.16,45.14,1050.4,9.48" transform="translate(182.17 17.13)"/><path id="Tracé_25" data-name="Tracé 25" class="cls-2" d="M-38.35,7.65C-2.82,94.55-2.23,218.87,44.1,362.19c33.79,106.44,57.26,214.49,148.33,235.68,141.64,33.08,233-202.47,543.75-243,355.57-46.41,668.07,205.91,841.2,159.43,110.67-29.85,93.95-154.35,13.34-246.86C1491.14,153.14,1276.6,51.31,1052.24,11.48" transform="translate(182.17 17.13)"/><path id="Tracé_26" data-name="Tracé 26" class="cls-2" d="M-41.54,11.76C3.36,100.33,7.36,225,52.69,367.49,86.64,474.23,107.56,582,197.58,603.1c140.17,33,233.51-204.44,547.66-247.14,357.71-48.61,676.69,199.65,846.5,155.49,108.55-28.37,88.09-148.68,4.74-239.15-103.18-112-319.43-214.82-542.39-258.83" transform="translate(182.17 17.13)"/><path id="Tracé_27" data-name="Tracé 27" class="cls-2" d="M-44.74,15.86c54.28,90.24,61.29,215.23,106,356.93,33.8,107,52.48,214.58,141.44,235.54,138.71,32.85,234-206.39,551.57-251.25,359.85-50.82,685.3,193.38,851.81,151.55,106.42-26.91,82.21-143-3.86-231.45C1495.45,167.44,1277.5,63.65,1055.93,15.46" transform="translate(182.17 17.13)"/><path id="Tracé_28" data-name="Tracé 28" class="cls-2" d="M-47.93,20C15.72,111.88,25.73,237.21,69.89,378.09c33.65,107.36,50.08,214.62,138,235.47C345.12,646.3,442.32,405.23,763.37,358.2c362-53,693.91,187.11,857.1,147.61,104.3-25.45,76.32-137.35-12.45-223.75C1497.57,174.59,1278,69.82,1057.77,17.46" transform="translate(182.17 17.13)"/><path id="Tracé_29" data-name="Tracé 29" class="cls-2" d="M-51.12,24.08c73,93.58,86,219.25,129.6,359.31C112,491.06,126.18,598.05,213,618.79c135.76,32.62,234.9-210.27,559.39-259.47C1136.56,304.11,1475,540.16,1634.83,503c102.18-24,70.41-131.69-21-216-114.1-105.23-335.39-211-554.16-267.5" transform="translate(182.17 17.13)"/><path id="Tracé_30" data-name="Tracé 30" class="cls-2" d="M-54.31,28.19c82.39,95.25,98.4,221.26,141.39,360.5,33.34,108,45.3,214.71,131.11,235.34,134.3,32.5,235.38-212.21,563.3-263.59C1147.77,303.06,1492.63,535,1649.2,500.16c100-22.5,64.48-126-29.66-208.33-117.78-103-340.7-209.66-558.08-270.38" transform="translate(182.17 17.13)"/><path id="Tracé_31" data-name="Tracé 31" class="cls-2" d="M-57.5,32.3C34.26,129.21,53.26,255.57,95.67,394c33.19,108.31,42.92,214.75,127.67,235.27,132.84,32.39,235.85-214.13,567.21-267.69,368.43-59.56,719.76,168.29,873,135.77,97.92-21,58.54-120.37-38.25-200.63-121.48-100.71-346-208.37-562-273.27" transform="translate(182.17 17.13)"/><path id="Tracé_32" data-name="Tracé 32" class="cls-2" d="M-60.7,36.4C40.44,135,62.43,261.69,104.27,399.29c33,108.62,40.52,214.79,124.23,235.19,131.36,32.28,236.32-216,571.11-271.8C1170.19,301,1528,524.7,1677.93,494.51c95.79-19.57,52.57-114.72-46.86-192.92-125.2-98.47-351.33-207.09-565.92-276.16" transform="translate(182.17 17.13)"/><path id="Tracé_33" data-name="Tracé 33" class="cls-2" d="M-63.89,40.51C46.63,140.77,71.59,267.82,112.86,404.59,145.73,513.52,151,619.42,233.65,639.71c129.9,32.16,236.8-218,575-275.91,372.74-63.88,737.12,156,883.62,127.89,93.76-18,46.6-109.06-55.46-185.22-128.94-96.22-356.65-205.8-569.84-279" transform="translate(182.17 17.13)"/><path id="Tracé_34" data-name="Tracé 34" class="cls-2" d="M-67.08,44.62C52.8,146.54,80.76,273.94,121.46,409.88,154.17,519.13,157.2,624.77,238.8,644.94c128.43,32,237.28-219.86,578.93-280,374.9-66,745.74,149.72,888.93,124,91.63-16.48,40.6-103.4-64.06-177.51-132.71-94-362-204.51-573.76-281.93" transform="translate(182.17 17.13)"/><path id="Tracé_35" data-name="Tracé 35" class="cls-2" d="M-70.27,48.73C59,152.32,89.92,280.06,130.05,415.19,162.6,524.75,163.4,630.11,244,650.17,370.92,682.1,481.72,428.41,826.79,366c377.07-68.15,754.36,143.46,894.23,120,89.51-15,34.59-97.74-72.66-169.81C1511.87,224.52,1281.08,113,1070.68,31.42" transform="translate(182.17 17.13)"/><path id="Tracé_36" data-name="Tracé 36" class="cls-2" d="M-73.47,52.84C65.17,158.1,99.07,286.18,138.65,420.48c32.38,109.88,30.95,215,110.46,234.93C374.6,687.22,487.36,431.75,835.86,367.15c379.23-70.29,763,137.21,899.53,116.07,87.38-13.53,28.55-92.08-81.27-162.11-140.29-89.45-372.59-201.93-581.6-287.7" transform="translate(182.17 17.13)"/><path id="Tracé_37" data-name="Tracé 37" class="cls-2" d="M-76.66,56.94c148,106.94,184.89,235.37,223.9,368.84,32.21,110.2,28.57,215,107,234.85,124,31.7,238.74-225.54,590.66-292.36,381.4-72.42,771.58,131,904.83,112.12C1835,468.34,1772.26,394,1659.88,326,1515.77,238.8,1282,125.36,1074.37,35.4" transform="translate(182.17 17.13)"/><path id="Tracé_38" data-name="Tracé 38" class="cls-2" d="M-79.85,61.05c157.38,108.61,197.23,237.38,235.69,370,32,110.51,26.22,215,103.58,234.79C382,697.3,498.65,438.44,854,369.39c383.58-74.54,780.19,124.7,910.13,108.18,83.13-10.57,16.45-80.74-98.46-146.69-148-84.93-383.23-199.35-589.44-293.48" transform="translate(182.17 17.13)"/><path id="Tracé_39" data-name="Tracé 39" class="cls-2" d="M-83,65.16C83.71,175.43,126.53,304.55,164.43,436.38c31.87,110.83,23.83,215,100.14,234.72C385.73,702.41,504.3,441.79,863,370.5,1248.8,293.85,1651.85,489,1778.47,474.74c81-9.09,10.38-75.05-107.06-139-151.82-82.64-388.54-198-593.36-296.36" transform="translate(182.17 17.13)"/><path id="Tracé_40" data-name="Tracé 40" class="cls-2" d="M-86.23,69.27C89.89,181.21,135.67,310.68,173,441.69c31.69,111.14,21.44,215,96.69,234.64C389.42,707.52,510,445.15,872.1,371.63c387.95-78.77,797.42,112.19,920.74,100.29,78.87-7.61,4.28-69.37-115.67-131.28-155.7-80.37-393.86-196.77-597.27-299.25" transform="translate(182.17 17.13)"/><path id="Tracé_41" data-name="Tracé 41" class="cls-2" d="M-89.43,73.37C96.07,187,144.81,316.8,181.62,447c31.52,111.46,19.06,215.08,93.25,234.58,118.24,31.07,240.74-233,606.29-308.82,390.13-80.86,806,106,926,96.35,76.75-6.13-1.81-63.67-124.26-123.57-159.6-78.07-399.18-195.48-601.2-302.14" transform="translate(182.17 17.13)"/><path id="Tracé_42" data-name="Tracé 42" class="cls-2" d="M-92.62,77.48C102.25,192.77,154,322.92,190.22,452.28,221.56,564.06,206.88,667.4,280,686.79c116.76,31,241.24-234.9,610.19-312.93,392.32-83,814.63,99.69,931.35,92.41,74.61-4.65-7.93-58-132.87-115.87-163.51-75.77-404.49-194.19-605.12-305" transform="translate(182.17 17.13)"/><path id="Tracé_43" data-name="Tracé 43" class="cls-2" d="M-95.81,81.59c204.24,117,258.9,247.46,294.63,376C230,569.67,213.09,672.74,285.18,692c115.3,30.84,241.76-236.76,614.1-317,394.52-85.06,823.24,93.44,936.65,88.47,72.48-3.18-14-52.27-141.47-108.17-167.42-73.46-409.8-192.9-609-307.91" transform="translate(182.17 17.13)"/><path id="Tracé_44" data-name="Tracé 44" class="cls-2" d="M-99,85.7C114.61,204.32,172.22,335.17,207.41,462.88c31,112.41,11.89,215.2,82.93,234.37C404.17,728,532.61,458.64,908.35,376.1c396.72-87.14,831.83,87.18,942,84.53,70.34-1.7-20.18-46.54-150.07-100.46-171.36-71.14-415.13-191.62-613-310.81" transform="translate(182.17 17.13)"/><path id="Tracé_45" data-name="Tracé 45" class="cls-2" d="M-102.19,89.81C120.79,210.1,181.35,341.3,216,468.18c30.78,112.72,9.49,215.25,79.48,234.3C407.86,733.08,538.28,462,917.41,377.22c398.91-89.23,840.42,80.93,947.25,80.58,68.21-.22-26.31-40.81-158.67-92.75-175.3-68.79-420.44-190.33-616.88-313.69" transform="translate(182.17 17.13)"/><path id="Tracé_46" data-name="Tracé 46" class="cls-2" d="M-105.39,93.91c232.36,122,295.87,253.51,330,379.57,30.6,113,7.1,215.29,76,234.24C411.54,738.2,544,465.41,926.47,378.34,1327.59,287,1775.49,453,1879,455c66.07,1.25-32.45-35.08-167.27-85.05C1532.51,303.49,1286,180.89,1091,53.35" transform="translate(182.17 17.13)"/><path id="Tracé_47" data-name="Tracé 47" class="cls-2" d="M-108.58,98C133.15,221.65,199.6,353.54,233.2,478.78c30.4,113.36,4.71,215.33,72.59,234.16C415.23,743.31,549.64,468.8,935.53,379.46c403.33-93.39,857.61,68.41,957.86,72.69,63.92,2.73-38.6-29.33-175.87-77.34-183.2-64.08-431.07-187.75-624.72-319.46" transform="translate(182.17 17.13)"/><path id="Tracé_48" data-name="Tracé 48" class="cls-2" d="M-111.77,102.13c251.1,125.3,320.5,257.54,353.56,382C272,597.75,244.11,699.45,311,718.18c108,30.25,244.37-246,633.64-337.6,405.55-95.46,866.2,62.15,963.16,68.75,61.78,4.21-44.74-23.57-184.47-69.64C1536.13,318,1286.9,193.23,1094.65,57.34" transform="translate(182.17 17.13)"/><path id="Tracé_49" data-name="Tracé 49" class="cls-2" d="M-115,106.24c260.47,127,332.8,259.55,365.35,383.14,30,114-.07,215.42,65.71,234C422.6,753.54,561,475.61,953.65,381.7c407.77-97.53,874.78,55.89,968.47,64.81,59.63,5.67-50.9-17.81-193.08-61.94-191.11-59.31-441.7-185.17-632.55-325.23" transform="translate(182.17 17.13)"/><path id="Tracé_50" data-name="Tracé 50" class="cls-2" d="M-118.16,110.35C151.69,239,227,371.92,259,494.68c29.82,114.3-2.46,215.46,62.27,234,105,30,245.44-249.63,641.46-345.83,410-99.58,883.36,49.63,973.77,60.87,57.49,7.15-57-12-201.68-54.23-195.06-56.91-447-183.88-636.47-328.12" transform="translate(182.17 17.13)"/><path id="Tracé_51" data-name="Tracé 51" class="cls-2" d="M-121.35,114.45C157.87,244.76,236.07,378,267.58,500c29.61,114.62-4.85,215.5,58.83,233.89,103.56,29.9,246-251.45,645.37-349.94,412.2-101.64,891.93,43.36,979.07,56.93,55.34,8.61-63.19-6.25-210.28-46.53-199-54.49-452.33-182.59-640.39-331" transform="translate(182.17 17.13)"/><path id="Tracé_52" data-name="Tracé 52" class="cls-2" d="M-124.54,118.56c288.59,132,369.72,265.61,400.71,386.72,29.41,114.94-7.24,215.54,55.39,233.82,102.1,29.79,246.53-253.27,649.28-354,414.43-103.7,900.51,37.08,984.37,53,53.19,10.09-69.33-.45-218.88-38.81-203-52.07-457.65-181.31-644.31-333.9" transform="translate(182.17 17.13)"/><path id="Tracé_53" data-name="Tracé 53" class="cls-2" d="M-127.73,122.67c298,133.65,382,267.62,412.5,387.91,29.21,115.25-9.63,215.59,51.94,233.75C437.34,774,583.79,489.24,989.9,386.17c416.66-105.76,909.08,30.8,989.67,49,51,11.54-75.47,5.34-227.48-31.12-206.92-49.62-463-180-648.23-336.78" transform="translate(182.17 17.13)"/><path id="Tracé_54" data-name="Tracé 54" class="cls-2" d="M-130.93,126.78C176.41,262.1,263.4,396.42,293.36,515.88c29,115.57-12,215.63,48.51,233.68C441,779.13,589.5,492.66,999,387.29c418.9-107.81,917.65,24.52,995,45.1,48.88,13-81.61,11.15-236.08-23.41C1547,361.8,1289.58,230.25,1105.71,69.31" transform="translate(182.17 17.13)"/><path id="Tracé_55" data-name="Tracé 55" class="cls-2" d="M-134.12,130.89C182.59,267.88,272.5,402.54,302,521.18,330.73,637.07,287.54,736.86,347,754.79c97.7,29.46,248.2-258.7,661-366.38,421.14-109.86,926.23,18.23,1000.28,41.15,46.73,14.46-87.74,17-244.68-15.7C1548.81,369.14,1290,236.42,1107.55,71.3" transform="translate(182.17 17.13)"/><path id="Tracé_56" data-name="Tracé 56" class="cls-2" d="M-137.31,135C188.77,273.65,281.6,408.67,310.56,526.48,339.12,642.68,293.74,742.2,352.17,760c96.22,29.35,248.75-260.51,664.91-370.5,423.38-111.89,934.81,11.94,1005.59,37.21,44.58,15.92-93.87,22.8-253.29-8-218.73-42.25-478.91-176.15-660-345.45" transform="translate(182.17 17.13)"/><path id="Tracé_57" data-name="Tracé 57" class="cls-2" d="M-140.5,139.1C195,279.43,290.7,414.79,319.15,531.78,347.49,648.3,300,747.55,357.32,765.25c94.76,29.24,249.32-262.31,668.82-374.6,425.63-113.94,943.39,5.64,1010.89,33.26,42.44,17.37-100,28.63-261.88-.29-222.66-39.77-484.23-174.85-663.91-348.33" transform="translate(182.17 17.13)"/><path id="Tracé_58" data-name="Tracé 58" class="cls-2" d="M-143.69,143.21c344.82,142,443.48,277.71,471.44,393.87,28.11,116.84-21.6,215.82,34.73,233.4,93.28,29.13,249.88-264.1,672.72-378.72,427.88-116,952-.66,1016.2,29.33,40.29,18.81-106.1,34.46-270.49,7.41-226.57-37.27-489.55-173.56-667.83-351.22" transform="translate(182.17 17.13)"/><path id="Tracé_59" data-name="Tracé 59" class="cls-2" d="M-146.89,147.32C207.3,291,308.88,427,336.34,542.38c27.89,117.15-24,215.87,31.29,233.34,91.81,29,250.45-265.91,676.64-382.84,430.13-118,960.57-7,1021.49,25.38,38.16,20.27-112.2,40.3-279.08,15.12-230.48-34.77-494.87-172.27-671.76-354.11" transform="translate(182.17 17.13)"/><path id="Tracé_60" data-name="Tracé 60" class="cls-2" d="M-150.08,151.43C213.49,296.76,318,433.17,344.94,547.68,372.6,665.15,318.55,763.59,372.78,781c90.34,28.91,251-267.7,680.55-387,432.39-120,969.18-13.27,1026.8,21.44,36,21.71-118.3,46.15-287.69,22.83-234.38-32.28-500.18-171-675.67-357" transform="translate(182.17 17.13)"/><path id="Tracé_61" data-name="Tracé 61" class="cls-2" d="M-153.27,155.53c372.94,147,480.33,283.76,506.8,397.45,27.43,117.79-28.78,216,24.41,233.2,88.86,28.8,251.6-269.49,684.45-391.06,434.64-122.07,977.8-19.58,1032.1,17.5,33.91,23.15-124.39,52-296.29,30.52-238.26-29.75-505.49-169.7-679.59-359.88" transform="translate(182.17 17.13)"/><path id="Tracé_62" data-name="Tracé 62" class="cls-2" d="M-156.46,159.64c382.31,148.68,492.6,285.77,518.59,398.63,27.19,118.12-31.17,216,21,233.14,87.39,28.69,252.18-271.28,688.36-395.17,436.91-124.1,986.43-25.89,1037.4,13.55,31.79,24.6-130.47,57.86-304.88,38.24-242.14-27.24-510.82-168.41-683.52-362.77" transform="translate(182.17 17.13)"/><path id="Tracé_63" data-name="Tracé 63" class="cls-2" d="M-159.65,163.75C232,314.09,345.23,451.54,370.72,563.58,397.67,682,337.16,779.64,388.24,796.64,474.16,825.23,641,523.58,1080.51,397.36c439.17-126.13,995.07-32.19,1042.71,9.61,29.67,26-136.55,63.71-313.49,45.94-246-24.71-516.13-167.12-687.43-365.66" transform="translate(182.17 17.13)"/><path id="Tracé_64" data-name="Tracé 64" class="cls-2" d="M-162.85,167.86c401.06,152,517.16,289.8,542.17,401,26.71,118.74-36,216.17,14.08,233,84.37,28.58,253.82-274.32,696.17-403.4,441.9-127.62,1003.72-38.49,1048,5.67,27.57,27.49-142.61,69.58-322.09,53.64C1565.63,435.61,1294.05,292,1124.14,89.25" transform="translate(182.17 17.13)"/><path id="Tracé_65" data-name="Tracé 65" class="cls-2" d="M-166,172c410.43,153.69,529.11,291.83,554,402.21C414,693.24,349.52,790.38,398.55,807.1c82.9,28.47,254.34-276.17,700.08-407.5C1542.74,269.87,2111,354.81,2152,401.33c25.47,28.94-148.68,75.44-330.69,61.35C1567.55,443,1294.5,298.13,1126,91.25" transform="translate(182.17 17.13)"/><path id="Tracé_66" data-name="Tracé 66" class="cls-2" d="M-169.23,176.07c419.8,155.36,541.43,293.85,565.74,403.4,25.93,119.39-40.79,216.26,7.19,232.86,81.44,28.35,254.87-278,704-411.62,446.3-131.83,1021-51.08,1058.61-2.21,23.37,30.39-154.73,81.31-339.29,69.05-257.55-17.1-532.08-163.25-699.19-374.31" transform="translate(182.17 17.13)"/><path id="Tracé_67" data-name="Tracé 67" class="cls-2" d="M-172.42,180.18C256.75,337.2,381.33,476,405.1,584.77c25.74,119.7-43.17,216.3,3.75,232.79,80,28.24,255.39-279.89,707.91-415.72,448.5-133.94,1029.69-57.38,1063.91-6.16,21.28,31.85-160.77,87.18-347.89,76.76-261.37-14.56-537.39-162-703.11-377.21" transform="translate(182.17 17.13)"/><path id="Tracé_68" data-name="Tracé 68" class="cls-2" d="M-175.61,184.29C262.93,343,390.47,482.17,413.7,590.07c25.54,120-45.57,216.34.31,232.72C492.51,850.91,669.92,541,1125.82,403c450.71-136,1038.48-63.68,1069.22-10.1,19.26,33.3-166.81,93.06-356.49,84.47-265.19-12-542.71-160.68-707-380.09" transform="translate(182.17 17.13)"/><path id="Tracé_69" data-name="Tracé 69" class="cls-2" d="M-178.81,188.4c447.92,160.36,578.41,299.89,601.1,407,25.36,120.33-48,216.39-3.13,232.66,77,28,256.43-283.62,715.72-424C1587.79,265.92,2182,334.12,2209.4,390c17.13,34.76-172.83,99.06-365.09,92.17-269-9.29-548-159.39-710.95-383" transform="translate(182.17 17.13)"/><path id="Tracé_70" data-name="Tracé 70" class="cls-2" d="M-182,192.5c457.29,162,590.73,301.91,612.89,408.17,25.16,120.65-50.35,216.43-6.57,232.58,75.56,27.89,257-285.48,719.62-428.06,455.12-140.26,1055.71-76.22,1079.83-18,15,36.24-178.87,104.81-373.7,99.88-272.8-6.91-553.33-158.1-714.87-385.87" transform="translate(182.17 17.13)"/></g></svg>